Coordinates
version=1
nRows=15
nColumns=34
inDegrees=yes

Units are S.I. units (second, meters, Newtons, ...)
If the header above contains a line with 'inDegrees', this indicates whether rotational values are in degrees (yes) or radians (no).

endheader
time	pelvis_tilt	pelvis_list	pelvis_rotation	pelvis_tx	pelvis_ty	pelvis_tz	hip_flexion_r	hip_adduction_r	hip_rotation_r	knee_angle_r	ankle_angle_r	subtalar_angle_r	mtp_angle_r	hip_flexion_l	hip_adduction_l	hip_rotation_l	knee_angle_l	ankle_angle_l	subtalar_angle_l	mtp_angle_l	lumbar_extension	lumbar_bending	lumbar_rotation	arm_flex_r	arm_add_r	arm_rot_r	elbow_flex_r	pro_sup_r	arm_flex_l	arm_add_l	arm_rot_l	elbow_flex_l	pro_sup_l
      6.10000000	      0.85255249	     -4.02281394	    -64.65553147	      0.05777532	      1.01971727	     -0.11416108	    -14.50712044	     -8.84023819	     -3.40182426	      1.85031403	      8.39877739	     -2.06257266	      0.00000000	    -12.16661855	     -4.31573511	     -3.83613867	      3.47428671	      8.06970802	      0.13038604	      0.00000000	    -15.21340057	      1.78424717	      0.00554027	     16.66176436	     -7.03207464	     24.50521702	     16.83013416	    118.98986516	     17.11375622	     -6.70388344	     30.24261653	     17.28806496	    114.30235851
      6.11666670	      0.84252644	     -3.99262486	    -64.60524377	      0.05794431	      1.01963580	     -0.11441215	    -14.49005226	     -8.84585388	     -3.40243300	      1.83411859	      8.40175704	     -2.06327590	      0.00000000	    -12.12916701	     -4.30426292	     -3.83754766	      3.44299870	      8.07322346	      0.13186515	      0.00000000	    -15.32625253	      1.80770552	      0.05390293	     16.59626903	     -7.10439105	     24.50106164	     16.78606810	    118.99177639	     16.98555188	     -6.80295700	     30.23613002	     17.21491046	    114.30232967
      6.13333330	      0.75759738	     -3.94916664	    -64.58875754	      0.05900500	      1.01915509	     -0.11297747	    -14.64146893	     -8.77813146	     -3.47431270	      1.63437797	      8.41410697	     -2.06311614	      0.00000000	    -12.35459990	     -4.33234015	     -3.86030141	      3.09061380	      8.11640617	      0.20088929	      0.00000000	    -14.98797714	      1.91930645	      0.08211474	     16.17280169	     -7.30364254	     24.46891643	     16.61662027	    119.05377277	     16.47582095	     -6.87491248	     30.14560541	     16.92268714	    114.32199807
      6.15000000	      0.75033203	     -3.92035203	    -64.54665713	      0.05912803	      1.01907643	     -0.11339403	    -14.61516621	     -8.78981416	     -3.47221405	      1.61882817	      8.41014333	     -2.06050771	      0.00000000	    -12.31007525	     -4.31876278	     -3.85250334	      3.06575472	      8.11022325	      0.20970565	      0.00000000	    -15.12364629	      1.95129731	      0.13103895	     16.10027133	     -7.37294934	     24.46239263	     16.57562694	    119.05468684	     16.32352465	     -6.96812847	     30.14050393	     16.85050168	    114.32200133
      6.16666670	      0.65314630	     -3.86812406	    -64.56912554	      0.06021758	      1.01868229	     -0.11225503	    -14.69803320	     -8.74938279	     -3.50948563	      1.46688609	      8.28397034	     -1.99346724	      0.00000000	    -12.50946048	     -4.33777627	     -3.87443159	      2.72037968	      8.02234718	      0.30596001	      0.00000000	    -14.82153847	      2.09420915	      0.12567450	     15.70473756	     -7.60375795	     24.34924496	     16.43585506	    119.09477713	     15.71690121	     -7.05330629	     30.03601320	     16.61653925	    114.33674320
      6.18333330	      0.64129260	     -3.83594077	    -64.52030964	      0.06034794	      1.01863058	     -0.11277580	    -14.66073482	     -8.76399489	     -3.50884860	      1.44606834	      8.28209623	     -1.99242643	      0.00000000	    -12.45457108	     -4.32352994	     -3.86716280	      2.69413814	      8.01596644	      0.31322832	      0.00000000	    -14.98664315	      2.12710968	      0.18289991	     15.62242778	     -7.67049050	     24.34286478	     16.39056229	    119.09554676	     15.54316033	     -7.15146761	     30.03224165	     16.53586677	    114.33693608
      6.20000000	      0.61867381	     -3.86534281	    -64.57021121	      0.06120559	      1.01846353	     -0.11207903	    -14.70799965	     -8.78235345	     -3.52569381	      1.51004022	      8.21135866	     -1.98142844	      0.00000000	    -12.53940298	     -4.31576895	     -3.84305049	      2.74408458	      7.93330856	      0.35474463	      0.00000000	    -14.91873073	      2.22383058	      0.20678998	     15.33351223	     -7.90089010	     24.29666692	     16.23477872	    119.10592987	     15.02556947	     -7.28683542	     30.01936359	     16.30865754	    114.34626212
      6.21666670	      0.56440480	     -3.83417669	    -64.56004978	      0.06180235	      1.01823646	     -0.11149653	    -14.71905090	     -8.76828921	     -3.54510295	      1.48736888	      8.15729347	     -1.95799698	      0.00000000	    -12.59781930	     -4.32597844	     -3.88310856	      2.62495542	      7.90835750	      0.35826227	      0.00000000	    -14.81515284	      2.30504596	      0.24174094	     15.01901247	     -8.05270555	     24.25024225	     16.07612751	    119.12354895	     14.57672542	     -7.40584895	     29.99380774	     16.07138737	    114.35733763
      6.23333330	      0.44140971	     -3.71940180	    -64.58219917	      0.06236317	      1.01778995	     -0.11062305	    -14.70416396	     -8.71626706	     -3.55386285	      1.30593621	      8.11835243	     -1.88460217	      0.00000000	    -12.68086098	     -4.35583343	     -3.93348105	      2.27538200	      7.90389281	      0.38344864	      0.00000000	    -14.55332875	      2.40706299	      0.32470884	     14.65402844	     -8.21242836	     24.13072085	     15.84163573	    119.16128372	     14.13268613	     -7.50981403	     29.90198557	     15.70535070	    114.37559989
      6.25000000	      0.44999516	     -3.75128077	    -64.57316197	      0.06277491	      1.01771263	     -0.11029803	    -14.73177861	     -8.73973694	     -3.52845389	      1.37787084	      8.08818772	     -1.86461591	      0.00000000	    -12.71177123	     -4.34450156	     -3.90097143	      2.33423856	      7.86048132	      0.40760454	      0.00000000	    -14.58657180	      2.47814786	      0.38869715	     14.38183002	     -8.38737382	     24.08206557	     15.67751640	    119.16677731	     13.75500277	     -7.68024533	     29.86929254	     15.48462434	    114.37737922
      6.26666670	      0.44521412	     -3.76773607	    -64.56972240	      0.06329413	      1.01755584	     -0.10968781	    -14.77341990	     -8.74984106	     -3.51918204	      1.41852005	      8.08789635	     -1.85850078	      0.00000000	    -12.77663192	     -4.34251876	     -3.90851788	      2.32732692	      7.85800447	      0.40379561	      0.00000000	    -14.53541256	      2.56722075	      0.43612712	     14.00637895	     -8.54412942	     24.00628889	     15.44764064	    119.16755643	     13.30395433	     -7.83363821	     29.81299949	     15.20021204	    114.37363285
      6.28333330	      0.42301440	     -3.77324397	    -64.56940877	      0.06385813	      1.01733566	     -0.10888306	    -14.82709623	     -8.74841010	     -3.50793624	      1.41855230	      8.09712814	     -1.84493594	      0.00000000	    -12.85642981	     -4.34523872	     -3.91762175	      2.27665584	      7.86269488	      0.40759834	      0.00000000	    -14.42268293	      2.67161661	      0.48510291	     13.58620853	     -8.69240582	     23.89399460	     15.18751086	    119.15771769	     12.82224363	     -8.00629326	     29.71896774	     14.88520903	    114.35786314
      6.30000000	      0.35162145	     -3.90434395	    -64.74874374	      0.06432965	      1.01723786	     -0.10742766	    -15.14888927	     -8.65324211	     -3.45293577	      1.05586247	      7.90737102	     -1.61297548	      0.00000000	    -13.35371852	     -4.40002465	     -4.08255488	      1.73267302	      7.62279439	      0.39771549	      0.00000000	    -14.30771104	      2.84812842	      0.78951456	     12.97757138	     -8.63663934	     21.48487416	     14.96044486	    118.85882845	     12.27351334	     -7.89810064	     27.56690729	     14.39598347	    113.92312849
      6.31666670	      0.38948749	     -3.96088543	    -64.70718105	      0.06488134	      1.01709510	     -0.10644681	    -15.25454624	     -8.67612345	     -3.39610977	      1.16573301	      7.94202981	     -1.60439992	      0.00000000	    -13.42039114	     -4.39293747	     -4.03542727	      1.86508630	      7.63846749	      0.40674844	      0.00000000	    -14.20296912	      2.90272761	      0.78930125	     12.49787577	     -8.77927121	     21.42401869	     14.79944921	    118.85971383	     11.78517072	     -8.15946579	     27.50607079	     14.22456964	    113.91491500
      6.33333330	      0.36930343	     -3.89983008	    -64.66224999	      0.06562456	      1.01658418	     -0.10466104	    -15.49175877	     -8.65742848	     -3.40854889	      0.84325389	      8.07918723	     -1.58712310	      0.00000000	    -13.53364274	     -4.38758536	     -4.06407060	      1.72269422	      7.78756328	      0.37966236	      0.00000000	    -13.74582592	      2.93272539	      0.74845280	     11.82577337	     -8.87656139	     21.11310218	     14.61901873	    118.81294534	     11.11268741	     -8.42924745	     27.19287244	     14.03241061	    113.83818521
